<svg xmlns="http://www.w3.org/2000/svg" viewBox="0 0 640 220" role="img" aria-labelledby="title desc">
  <title id="title">Jersey Aquatic Center Logo</title>
  <desc id="desc">Stylized New Jersey shape, AC lettering, wave motif, and Jersey Aquatic Center text.</desc>
  <rect width="640" height="220" fill="#f0f0f0"/>
  <path d="M76 28l18 8 20 20-8 10 8 18-20 6-8 16-26 8-7 20-20 10 10 18-8 12 11 8 23-13 23-6 22-25 17-8 24-26 12-18 26-12 2-20-18-16-21-36-23-14-26 2z" fill="none" stroke="#2f436f" stroke-width="6" stroke-linejoin="round"/>
  <text x="170" y="122" font-family="Georgia, serif" font-size="112" font-weight="700" fill="#2e4272">AC</text>
  <path d="M330 112c44-26 78-20 112-10 30 9 57 8 84-2" fill="none" stroke="#2e4272" stroke-width="13" stroke-linecap="round"/>
  <path d="M328 129c44-21 81-14 115-5 29 7 55 7 79-2" fill="none" stroke="#2e4272" stroke-width="8" stroke-linecap="round"/>
  <text x="175" y="178" font-family="Arial, sans-serif" font-size="44" fill="#2e4272" letter-spacing="1">JERSEY AQUATIC CENTER</text>
</svg>
